<?xml version="1.0" encoding="UTF-8" standalone="no"?>
<!DOCTYPE svg PUBLIC "-//W3C//DTD SVG 1.1//EN" "http://www.w3.org/Graphics/SVG/1.1/DTD/svg11.dtd">
<svg width="100%" height="100%" viewBox="0 0 1005 275" version="1.1" xmlns="http://www.w3.org/2000/svg" xmlns:xlink="http://www.w3.org/1999/xlink" xml:space="preserve" xmlns:serif="http://www.serif.com/" style="fill-rule:evenodd;clip-rule:evenodd;stroke-linejoin:round;stroke-miterlimit:2;">
    <g transform="matrix(4.16667,0,0,4.16667,0,0)">
        <path d="M0,39.365C9.285,34.585 22.887,26.858 39.031,15.56L39.031,11.767C24.823,21.063 10.373,28.527 0,33.466L0,39.365Z" style="fill:rgb(0,168,134);fill-rule:nonzero;"/>
        <path d="M0,28.04C10.338,23.83 24.788,17.321 39.031,8.851L39.031,6.978C25.644,13.62 11.736,17.776 0,20.367L0,28.04Z" style="fill:rgb(0,168,134);fill-rule:nonzero;"/>
        <path d="M39.031,39.385L39.031,20.309C30.145,27.8 21.345,34.286 13.953,39.385L39.031,39.385Z" style="fill:rgb(0,168,134);fill-rule:nonzero;"/>
        <path d="M8.961,39.385C15.981,35.218 24.502,29.779 32.987,23.423C34.967,21.938 36.988,20.411 39.031,18.832L39.031,16.467C26.472,25.882 13.653,33.731 3.637,39.385L8.961,39.385Z" style="fill:rgb(0,168,134);fill-rule:nonzero;"/>
        <path d="M0,17.592C11.416,15.584 25.383,11.973 39.031,5.486L39.031,3.359C25.278,9.533 11.511,12.151 0,13.083L0,17.592Z" style="fill:rgb(0,168,134);fill-rule:nonzero;"/>
        <path d="M0,0.155L0,11.083C0.852,11.03 1.721,10.969 2.609,10.9C12.101,10.171 25.053,8.493 39.031,2.449L39.031,0.155L0,0.155Z" style="fill:rgb(0,168,134);fill-rule:nonzero;"/>
        <path d="M0,11.083L0,13.083C11.511,12.151 25.278,9.533 39.031,3.359L39.031,2.449C25.053,8.493 12.101,10.171 2.609,10.9C1.721,10.969 0.852,11.03 0,11.083Z" style="fill:white;fill-rule:nonzero;"/>
        <path d="M0,20.367C11.736,17.776 25.644,13.62 39.031,6.978L39.031,5.486C25.383,11.973 11.416,15.584 0,17.592L0,20.367Z" style="fill:white;fill-rule:nonzero;"/>
        <path d="M0,33.466C10.373,28.527 24.823,21.063 39.031,11.767L39.031,8.851C24.788,17.321 10.338,23.83 0,28.04L0,33.466Z" style="fill:white;fill-rule:nonzero;"/>
        <path d="M8.961,39.385L13.953,39.385C21.345,34.286 30.145,27.8 39.031,20.309L39.031,18.832C36.988,20.411 34.967,21.938 32.987,23.423C24.502,29.779 15.981,35.218 8.961,39.385Z" style="fill:white;fill-rule:nonzero;"/>
        <path d="M0,39.385L3.637,39.385C13.653,33.731 26.472,25.882 39.031,16.467L39.031,15.56C22.887,26.858 9.285,34.585 0,39.365L0,39.385Z" style="fill:white;fill-rule:nonzero;"/>
        <path d="M52.175,39.365L57.421,39.365L57.421,27.897L66.265,27.897L66.265,23.775L57.421,23.775L57.421,17.331L66.714,17.331L66.714,13.21L52.175,13.21L52.175,39.365ZM70.311,39.365L75.332,39.365L75.332,32.28C75.332,29.511 75.332,24.413 79.415,24.413C80.314,24.413 81.214,24.56 81.665,24.825L81.665,19.767C81.139,19.616 80.615,19.616 80.127,19.616C77.131,19.616 75.069,22.654 74.845,24.448L74.77,24.448L74.77,20.067L70.311,20.067L70.311,39.365ZM85.411,25.388C87.097,24.112 89.231,23.289 91.369,23.289C94.327,23.289 95.715,24.338 95.715,27.449L92.942,27.449C90.845,27.449 88.371,27.633 86.46,28.572C84.548,29.511 83.164,31.196 83.164,34.083C83.164,37.752 86.497,39.815 89.907,39.815C92.192,39.815 94.704,38.616 95.864,36.48L95.94,36.48C95.979,37.078 95.979,38.35 96.165,39.365L100.586,39.365C100.473,37.863 100.398,36.515 100.36,35.055C100.323,33.632 100.287,32.17 100.287,30.22L100.287,27.746C100.287,22.051 97.85,19.616 91.968,19.616C89.832,19.616 87.21,20.18 85.261,21.08L85.411,25.388ZM87.957,33.782C87.957,30.819 91.292,30.445 93.542,30.445L95.715,30.445C95.715,31.946 95.49,33.33 94.664,34.419C93.878,35.464 92.68,36.144 91.144,36.144C89.346,36.144 87.957,35.428 87.957,33.782ZM122.208,20.067L117.185,20.067L117.185,29.511C117.185,31.981 116.398,35.917 112.763,35.917C109.541,35.917 109.503,32.73 109.503,30.369L109.503,20.067L104.483,20.067L104.483,32.245C104.483,36.592 106.469,39.815 111.041,39.815C113.663,39.815 115.836,38.616 117.373,36.74L117.449,36.74L117.449,39.365L122.208,39.365L122.208,20.067ZM127.38,39.365L132.4,39.365L132.4,29.92C132.4,27.449 133.188,23.513 136.821,23.513C140.041,23.513 140.079,26.699 140.079,29.059L140.079,39.365L145.104,39.365L145.104,27.186C145.104,22.839 143.116,19.616 138.546,19.616C135.923,19.616 133.784,20.479 132.214,22.689L132.133,22.689L132.133,20.067L127.38,20.067L127.38,39.365ZM150.272,39.365L155.292,39.365L155.292,29.92C155.292,27.449 156.081,23.513 159.717,23.513C162.939,23.513 162.974,26.699 162.974,29.059L162.974,39.365L167.991,39.365L167.991,27.186C167.991,22.839 166.006,19.616 161.439,19.616C158.816,19.616 156.642,20.817 155.372,22.689L155.292,22.689L155.292,11.263L150.272,11.263L150.272,39.365ZM171.178,29.849C171.178,35.389 174.89,39.815 181.26,39.815C187.667,39.815 191.375,35.389 191.375,29.849C191.375,23.476 186.996,19.616 181.26,19.616C175.566,19.616 171.178,23.476 171.178,29.849ZM176.425,29.245C176.425,26.36 177.999,23.513 181.26,23.513C184.558,23.513 186.129,26.286 186.129,29.245C186.129,32.47 185.122,35.917 181.26,35.917C177.434,35.917 176.425,32.431 176.425,29.245ZM196.397,39.365L201.416,39.365L201.416,23.738L205.798,23.738L205.798,20.067L201.416,20.067L201.416,17.668C201.416,16.17 201.943,14.707 203.632,14.707C204.715,14.707 205.354,15.122 205.798,15.384L206.213,11.224C205.24,11 203.817,10.812 202.543,10.812C198.569,10.812 196.397,13.509 196.397,17.369L196.397,20.067L192.689,20.067L192.689,23.738L196.397,23.738L196.397,39.365ZM212.431,27.823C212.661,25.238 214.08,23.289 216.892,23.289C219.705,23.289 220.828,25.388 220.975,27.823L212.431,27.823ZM224.349,34.194C222.473,35.242 220.378,36.144 217.938,36.144C214.834,36.144 212.661,34.384 212.431,31.269L225.77,31.269C225.77,24.524 223.749,19.616 216.59,19.616C210.599,19.616 207.637,24.224 207.637,29.808C207.637,36.144 211.346,39.815 217.718,39.815C220.417,39.815 222.509,39.29 224.349,38.276L224.349,34.194ZM229.371,39.365L234.389,39.365L234.389,32.28C234.389,29.511 234.389,24.413 238.472,24.413C239.374,24.413 240.273,24.56 240.723,24.825L240.723,19.767C240.194,19.616 239.67,19.616 239.184,19.616C236.188,19.616 234.126,22.654 233.903,24.448L233.826,24.448L233.826,20.067L229.371,20.067L229.371,39.365Z" style="fill:white;fill-rule:nonzero;"/>
        <rect x="200.834" y="52.692" width="2.536" height="13.084" style="fill:white;fill-rule:nonzero;"/>
        <path d="M208.844,59.196C208.829,60.42 209.101,61.5 209.659,62.44C210.21,63.415 211.124,63.915 212.392,63.94C213.044,63.94 213.601,63.801 214.06,63.526C214.517,63.252 214.88,62.889 215.145,62.44C215.676,61.5 215.944,60.42 215.944,59.196C215.944,57.985 215.67,56.915 215.129,55.991C214.56,55.04 213.647,54.553 212.392,54.53C211.149,54.553 210.25,55.04 209.696,55.991C209.125,56.915 208.844,57.985 208.844,59.196ZM206.198,59.196C206.198,57.159 206.728,55.534 207.791,54.321C208.844,53.096 210.375,52.479 212.392,52.465C214.396,52.491 215.93,53.116 216.995,54.34C218.056,55.551 218.586,57.172 218.586,59.196C218.576,61.207 218.05,62.831 217.011,64.071C215.95,65.331 214.412,65.977 212.392,66C210.364,65.977 208.829,65.338 207.791,64.088C206.728,62.864 206.198,61.233 206.198,59.196Z" style="fill:white;fill-rule:nonzero;"/>
        <path d="M225.49,54.53C225.272,54.53 225.055,54.553 224.837,54.602C224.608,54.653 224.39,54.747 224.185,54.883C223.992,55.01 223.828,55.196 223.695,55.446C223.563,55.684 223.496,55.985 223.496,56.346C223.496,56.622 223.583,56.852 223.75,57.04C223.918,57.227 224.133,57.395 224.384,57.545C224.664,57.696 224.965,57.834 225.292,57.959C225.606,58.096 225.938,58.239 226.286,58.389C226.636,58.526 226.974,58.688 227.3,58.875C227.64,59.077 227.936,59.321 228.191,59.608C228.442,59.881 228.654,60.213 228.824,60.602C228.966,61.002 229.042,61.483 229.042,62.045C229.017,63.459 228.551,64.471 227.646,65.082C226.739,65.694 225.622,66 224.295,66C223.643,66 223.092,65.952 222.645,65.85C222.187,65.764 221.656,65.645 221.05,65.495L221.288,63.133C222.181,63.659 223.135,63.926 224.148,63.94C224.667,63.94 225.169,63.801 225.652,63.526C226.136,63.252 226.382,62.827 226.395,62.252C226.395,61.94 226.324,61.668 226.177,61.446C226.009,61.219 225.797,61.032 225.544,60.883C224.988,60.582 224.353,60.295 223.643,60.02C223.292,59.87 222.959,59.696 222.645,59.497C222.318,59.309 222.017,59.084 221.739,58.823C221.487,58.545 221.274,58.213 221.106,57.829C220.936,57.44 220.851,56.983 220.851,56.459C220.876,55.01 221.339,53.971 222.247,53.348C223.118,52.758 224.124,52.465 225.272,52.465C226.361,52.465 227.367,52.622 228.296,52.934L228.063,55.088C227.252,54.727 226.395,54.54 225.49,54.53Z" style="fill:white;fill-rule:nonzero;"/>
        <path d="M234.603,63.713L235.8,63.713C236.113,63.713 236.422,63.688 236.723,63.639C237.024,63.577 237.304,63.483 237.555,63.356C238.111,63.108 238.395,62.622 238.407,61.895C238.407,61.471 238.334,61.122 238.19,60.844C238.043,60.582 237.844,60.389 237.591,60.264C237.338,60.116 237.061,60.012 236.759,59.965C236.443,59.94 236.126,59.926 235.8,59.926L234.603,59.926L234.603,63.713ZM234.603,57.977L235.636,57.977C236.215,57.991 236.754,57.889 237.249,57.678C237.49,57.565 237.682,57.401 237.83,57.19C237.962,56.991 238.028,56.721 238.028,56.383C238.028,55.997 237.962,55.69 237.83,55.465C237.682,55.239 237.49,55.079 237.249,54.977C237.005,54.864 236.749,54.797 236.468,54.772C236.178,54.758 235.883,54.752 235.583,54.752L234.603,54.752L234.603,57.977ZM232.069,52.692L236.488,52.692C236.911,52.692 237.362,52.721 237.844,52.784C238.304,52.87 238.739,53.036 239.15,53.272C239.573,53.51 239.916,53.848 240.184,54.284C240.423,54.733 240.551,55.323 240.563,56.045C240.551,56.823 240.322,57.465 239.874,57.977C239.425,58.491 238.818,58.823 238.043,58.971L238.043,59.008C238.925,59.096 239.628,59.409 240.146,59.946C240.665,60.483 240.929,61.165 240.945,61.989C240.945,62.801 240.792,63.459 240.491,63.957C240.19,64.457 239.802,64.838 239.333,65.102C238.872,65.364 238.389,65.538 237.881,65.625C237.362,65.725 236.897,65.776 236.488,65.776L232.069,65.776L232.069,52.692Z" style="fill:white;fill-rule:nonzero;"/>
    </g>
</svg>
