<?xml version="1.0" encoding="UTF-8" standalone="no"?>
<!DOCTYPE svg PUBLIC "-//W3C//DTD SVG 1.1//EN" "http://www.w3.org/Graphics/SVG/1.1/DTD/svg11.dtd">
<svg width="100%" height="100%" viewBox="0 0 821 375" version="1.1" xmlns="http://www.w3.org/2000/svg" xmlns:xlink="http://www.w3.org/1999/xlink" xml:space="preserve" xmlns:serif="http://www.serif.com/" style="fill-rule:evenodd;clip-rule:evenodd;stroke-linejoin:round;stroke-miterlimit:2;">
    <g transform="matrix(4.16667,0,0,4.16667,0,0)">
        <path d="M122.353,70.909L100.97,70.909L75.553,43.621L75.553,27.997L100.177,0.782L122.21,0.782L93.84,36.061L122.353,70.909ZM144.817,70.909L125.593,70.909L125.593,0.853L144.817,0.853L144.817,70.909ZM195.722,0.853L149.425,0.853L149.425,16.621L162.962,16.621L162.962,70.981L182.185,70.981L182.185,16.621L195.722,16.621L195.722,0.853Z" style="fill:rgb(35,31,32);"/>
        <path d="M70.944,70.909" style="fill:rgb(35,31,32);"/>
        <path d="M70.944,70.909" style="fill:rgb(35,31,32);"/>
        <path d="M16.152,26.486C12.481,30.95 9.312,35.846 6.864,41.101L70.944,70.909L16.152,26.486Z" style="fill:rgb(0,168,142);"/>
        <path d="M70.944,70.909L41.064,7.333C35.736,9.782 30.84,12.806 26.377,16.406L70.944,70.909Z" style="fill:rgb(0,168,142);"/>
        <path d="M70.944,70.909L71.017,0.853L70.44,0.853C64.752,0.853 59.209,1.574 53.88,2.87L70.944,70.909Z" style="fill:rgb(35,31,32);"/>
        <path d="M70.944,70.909" style="fill:rgb(35,31,32);"/>
        <path d="M70.944,70.909" style="fill:rgb(35,31,32);"/>
        <path d="M2.256,53.774C0.816,59.246 0.097,65.006 0.024,70.909L70.944,70.909L2.256,53.774Z" style="fill:rgb(0,168,142);"/>
        <path d="M0,87.157L1.28,87.157L1.28,82.778L5.261,87.157L7.13,87.157L2.598,82.446L6.797,78.221L5.095,78.221L1.28,82.151L1.28,78.221L0,78.221L0,87.157Z" style="fill:rgb(35,31,32);fill-rule:nonzero;"/>
        <path d="M12.238,84.621C12.238,85.594 11.61,86.338 10.42,86.338C9.87,86.338 9.204,85.967 9.204,85.276C9.204,84.123 10.817,84.02 11.47,84.02C11.726,84.02 11.981,84.045 12.238,84.045L12.238,84.621ZM8.73,82.114C9.217,81.704 9.946,81.448 10.625,81.448C11.828,81.448 12.238,82.024 12.238,83.151C11.764,83.125 11.431,83.125 10.958,83.125C9.716,83.125 7.923,83.637 7.923,85.276C7.923,86.696 8.909,87.313 10.317,87.313C11.418,87.313 12.058,86.709 12.34,86.313L12.366,86.313L12.366,87.157L13.492,87.157C13.466,86.965 13.441,86.62 13.441,85.877L13.441,83.176C13.441,81.397 12.686,80.475 10.817,80.475C9.984,80.475 9.268,80.731 8.666,81.088L8.73,82.114Z" style="fill:rgb(35,31,32);fill-rule:nonzero;"/>
        <path d="M15.477,87.157L16.68,87.157L16.68,84.186C16.68,82.549 17.384,81.524 18.459,81.524C18.664,81.524 18.907,81.549 19.125,81.639L19.125,80.565C18.869,80.512 18.689,80.475 18.331,80.475C17.64,80.475 16.949,80.961 16.628,81.639L16.603,81.639L16.603,80.627L15.477,80.627L15.477,87.157Z" style="fill:rgb(35,31,32);fill-rule:nonzero;"/>
        <rect x="20.61" y="77.555" width="1.204" height="9.602" style="fill:rgb(35,31,32);fill-rule:nonzero;"/>
        <path d="M23.465,86.952C24.015,87.248 24.643,87.313 25.257,87.313C26.422,87.313 27.536,86.67 27.536,85.276C27.536,83.188 24.707,83.573 24.707,82.241C24.707,81.704 25.244,81.448 25.858,81.448C26.14,81.448 26.857,81.614 27.126,81.78L27.228,80.731C26.754,80.59 26.294,80.475 25.73,80.475C24.438,80.475 23.426,81.127 23.426,82.485C23.426,84.315 26.255,84.213 26.255,85.403C26.255,86.108 25.577,86.338 25.026,86.338C24.681,86.338 24.002,86.184 23.529,85.877L23.465,86.952Z" style="fill:rgb(35,31,32);fill-rule:nonzero;"/>
        <path d="M28.995,87.157L30.198,87.157L30.198,84.186C30.198,82.549 30.902,81.524 31.978,81.524C32.183,81.524 32.426,81.549 32.644,81.639L32.644,80.565C32.388,80.512 32.208,80.475 31.85,80.475C31.158,80.475 30.467,80.961 30.147,81.639L30.122,81.639L30.122,80.627L28.995,80.627L28.995,87.157Z" style="fill:rgb(35,31,32);fill-rule:nonzero;"/>
        <path d="M39.748,80.627L38.545,80.627L38.545,83.649C38.545,85.237 37.931,86.338 36.561,86.338C35.511,86.274 35.178,85.532 35.178,84.008L35.178,80.627L33.975,80.627L33.975,84.506C33.975,86.26 34.73,87.313 36.42,87.313C37.329,87.313 38.199,86.862 38.558,86.12L38.584,86.12L38.584,87.157L39.748,87.157L39.748,80.627Z" style="fill:rgb(35,31,32);fill-rule:nonzero;"/>
        <path d="M41.796,87.157L43,87.157L43,84.135C43,82.549 43.614,81.448 44.984,81.448C46.034,81.512 46.366,82.254 46.366,83.778L46.366,87.157L47.57,87.157L47.57,83.278C47.57,81.524 46.814,80.475 45.125,80.475C44.216,80.475 43.46,80.871 43.025,81.563L43,81.563L43,77.555L41.796,77.555L41.796,87.157Z" style="fill:rgb(35,31,32);fill-rule:nonzero;"/>
        <path d="M50.463,83.266C50.552,82.42 51.039,81.448 52.217,81.448C53.253,81.448 53.842,82.266 53.842,83.266L50.463,83.266ZM54.623,85.684C54.329,85.928 53.407,86.338 52.613,86.338C51.474,86.338 50.463,85.454 50.463,84.161L55.123,84.161C55.123,82.061 54.418,80.475 52.242,80.475C50.399,80.475 49.183,81.844 49.183,83.778C49.183,85.903 50.245,87.313 52.562,87.313C53.637,87.313 54.162,87.055 54.623,86.887L54.623,85.684Z" style="fill:rgb(35,31,32);fill-rule:nonzero;"/>
        <rect x="60.41" y="78.221" width="1.279" height="8.936" style="fill:rgb(35,31,32);fill-rule:nonzero;"/>
        <path d="M63.853,87.157L65.057,87.157L65.057,84.135C65.057,82.549 65.671,81.448 67.041,81.448C68.09,81.512 68.423,82.254 68.423,83.778L68.423,87.157L69.627,87.157L69.627,83.278C69.627,81.524 68.872,80.475 67.182,80.475C66.272,80.475 65.402,80.922 65.044,81.664L65.018,81.664L65.018,80.627L63.853,80.627L63.853,87.157Z" style="fill:rgb(35,31,32);fill-rule:nonzero;"/>
        <path d="M71.125,86.952C71.675,87.248 72.302,87.313 72.917,87.313C74.082,87.313 75.195,86.67 75.195,85.276C75.195,83.188 72.366,83.573 72.366,82.241C72.366,81.704 72.903,81.448 73.518,81.448C73.8,81.448 74.517,81.614 74.786,81.78L74.888,80.731C74.414,80.59 73.954,80.475 73.39,80.475C72.097,80.475 71.086,81.127 71.086,82.485C71.086,84.315 73.915,84.213 73.915,85.403C73.915,86.108 73.237,86.338 72.686,86.338C72.34,86.338 71.662,86.184 71.189,85.877L71.125,86.952Z" style="fill:rgb(35,31,32);fill-rule:nonzero;"/>
        <path d="M80.124,80.627L78.396,80.627L78.396,78.733L77.192,79.118L77.192,80.627L75.72,80.627L75.72,81.602L77.192,81.602L77.192,85.416C77.192,86.721 77.96,87.313 79.202,87.313C79.586,87.313 79.957,87.209 80.226,87.131L80.226,86.108C80.047,86.223 79.778,86.338 79.407,86.338C78.856,86.338 78.396,85.928 78.396,85.172L78.396,81.602L80.124,81.602L80.124,80.627Z" style="fill:rgb(35,31,32);fill-rule:nonzero;"/>
        <path d="M83.068,77.811L81.711,77.811L81.711,79.168L83.068,79.168L83.068,77.811ZM81.788,87.157L82.991,87.157L82.991,80.627L81.788,80.627L81.788,87.157Z" style="fill:rgb(35,31,32);fill-rule:nonzero;"/>
        <path d="M88.663,80.627L86.934,80.627L86.934,78.733L85.731,79.118L85.731,80.627L84.259,80.627L84.259,81.602L85.731,81.602L85.731,85.416C85.731,86.721 86.499,87.313 87.741,87.313C88.125,87.313 88.496,87.209 88.765,87.131L88.765,86.108C88.586,86.223 88.317,86.338 87.945,86.338C87.395,86.338 86.934,85.928 86.934,85.172L86.934,81.602L88.663,81.602L88.663,80.627Z" style="fill:rgb(35,31,32);fill-rule:nonzero;"/>
        <path d="M95.946,80.627L94.743,80.627L94.743,83.649C94.743,85.237 94.129,86.338 92.759,86.338C91.709,86.274 91.377,85.532 91.377,84.008L91.377,80.627L90.173,80.627L90.173,84.506C90.173,86.26 90.928,87.313 92.618,87.313C93.527,87.313 94.397,86.862 94.756,86.12L94.782,86.12L94.782,87.157L95.946,87.157L95.946,80.627Z" style="fill:rgb(35,31,32);fill-rule:nonzero;"/>
        <path d="M101.464,80.627L99.736,80.627L99.736,78.733L98.532,79.118L98.532,80.627L97.06,80.627L97.06,81.602L98.532,81.602L98.532,85.416C98.532,86.721 99.3,87.313 100.543,87.313C100.927,87.313 101.298,87.209 101.566,87.131L101.566,86.108C101.388,86.223 101.118,86.338 100.747,86.338C100.197,86.338 99.736,85.928 99.736,85.172L99.736,81.602L101.464,81.602L101.464,80.627Z" style="fill:rgb(35,31,32);fill-rule:nonzero;"/>
        <path d="M103.82,83.266C103.909,82.42 104.396,81.448 105.573,81.448C106.61,81.448 107.199,82.266 107.199,83.266L103.82,83.266ZM107.98,85.684C107.686,85.928 106.765,86.338 105.971,86.338C104.831,86.338 103.82,85.454 103.82,84.161L108.479,84.161C108.479,82.061 107.775,80.475 105.6,80.475C103.756,80.475 102.539,81.844 102.539,83.778C102.539,85.903 103.603,87.313 105.919,87.313C106.994,87.313 107.52,87.055 107.98,86.887L107.98,85.684Z" style="fill:rgb(35,31,32);fill-rule:nonzero;"/>
        <path d="M114.496,83.893C114.496,82.651 115.252,81.448 116.544,81.448C117.824,81.448 118.58,82.651 118.58,83.893C118.58,85.057 117.953,86.338 116.544,86.338C115.123,86.338 114.496,85.057 114.496,83.893ZM113.216,83.893C113.216,85.762 114.573,87.313 116.544,87.313C118.503,87.313 119.86,85.762 119.86,83.893C119.86,81.909 118.528,80.475 116.544,80.475C114.548,80.475 113.216,81.909 113.216,83.893Z" style="fill:rgb(35,31,32);fill-rule:nonzero;"/>
        <path d="M122.254,87.157L123.457,87.157L123.457,81.602L125.186,81.602L125.186,80.627L123.457,80.627L123.457,79.924C123.457,79.041 123.585,78.375 124.622,78.375C124.827,78.375 125.058,78.401 125.198,78.452L125.249,77.479C125.006,77.44 124.75,77.403 124.442,77.403C122.663,77.403 122.254,78.44 122.254,80.026L122.254,80.627L120.718,80.627L120.718,81.602L122.254,81.602L122.254,87.157Z" style="fill:rgb(35,31,32);fill-rule:nonzero;"/>
        <path d="M131.906,87.157L133.187,87.157L133.187,79.348L135.964,79.348L135.964,78.221L129.128,78.221L129.128,79.348L131.906,79.348L131.906,87.157Z" style="fill:rgb(35,31,32);fill-rule:nonzero;"/>
        <path d="M137.027,83.266C137.116,82.42 137.603,81.448 138.78,81.448C139.817,81.448 140.406,82.266 140.406,83.266L137.027,83.266ZM141.188,85.684C140.893,85.928 139.972,86.338 139.178,86.338C138.038,86.338 137.027,85.454 137.027,84.161L141.687,84.161C141.687,82.061 140.982,80.475 138.807,80.475C136.963,80.475 135.746,81.844 135.746,83.778C135.746,85.903 136.81,87.313 139.126,87.313C140.201,87.313 140.727,87.055 141.188,86.887L141.188,85.684Z" style="fill:rgb(35,31,32);fill-rule:nonzero;"/>
        <path d="M147.55,80.731C147.204,80.59 146.577,80.475 146.09,80.475C144.094,80.475 142.762,81.909 142.762,83.893C142.762,85.762 144.119,87.313 146.09,87.313C146.525,87.313 147.102,87.274 147.601,87.041L147.512,85.967C147.14,86.209 146.628,86.338 146.219,86.338C144.669,86.338 144.042,85.057 144.042,83.893C144.042,82.651 144.798,81.448 146.142,81.448C146.525,81.448 146.986,81.538 147.447,81.729L147.55,80.731Z" style="fill:rgb(35,31,32);fill-rule:nonzero;"/>
        <path d="M148.983,87.157L150.187,87.157L150.187,84.135C150.187,82.549 150.801,81.448 152.171,81.448C153.221,81.512 153.553,82.254 153.553,83.778L153.553,87.157L154.757,87.157L154.757,83.278C154.757,81.524 154.001,80.475 152.312,80.475C151.402,80.475 150.647,80.871 150.212,81.563L150.187,81.563L150.187,77.555L148.983,77.555L148.983,87.157Z" style="fill:rgb(35,31,32);fill-rule:nonzero;"/>
        <path d="M156.805,87.157L158.008,87.157L158.008,84.135C158.008,82.549 158.623,81.448 159.992,81.448C161.042,81.512 161.375,82.254 161.375,83.778L161.375,87.157L162.578,87.157L162.578,83.278C162.578,81.524 161.823,80.475 160.133,80.475C159.225,80.475 158.354,80.922 157.995,81.664L157.97,81.664L157.97,80.627L156.805,80.627L156.805,87.157Z" style="fill:rgb(35,31,32);fill-rule:nonzero;"/>
        <path d="M165.472,83.893C165.472,82.651 166.227,81.448 167.52,81.448C168.8,81.448 169.555,82.651 169.555,83.893C169.555,85.057 168.928,86.338 167.52,86.338C166.099,86.338 165.472,85.057 165.472,83.893ZM164.191,83.893C164.191,85.762 165.548,87.313 167.52,87.313C169.478,87.313 170.835,85.762 170.835,83.893C170.835,81.909 169.504,80.475 167.52,80.475C165.522,80.475 164.191,81.909 164.191,83.893Z" style="fill:rgb(35,31,32);fill-rule:nonzero;"/>
        <rect x="172.602" y="77.555" width="1.203" height="9.602" style="fill:rgb(35,31,32);fill-rule:nonzero;"/>
        <path d="M176.852,83.893C176.852,82.651 177.606,81.448 178.899,81.448C180.18,81.448 180.936,82.651 180.936,83.893C180.936,85.057 180.308,86.338 178.899,86.338C177.479,86.338 176.852,85.057 176.852,83.893ZM175.571,83.893C175.571,85.762 176.928,87.313 178.899,87.313C180.858,87.313 182.215,85.762 182.215,83.893C182.215,81.909 180.884,80.475 178.899,80.475C176.902,80.475 175.571,81.909 175.571,83.893Z" style="fill:rgb(35,31,32);fill-rule:nonzero;"/>
        <path d="M186.49,86.184C185.364,86.184 184.673,85.108 184.673,83.879C184.673,82.766 185.274,81.448 186.49,81.448C187.771,81.448 188.398,82.612 188.398,83.969C188.398,85.186 187.617,86.184 186.49,86.184ZM189.602,80.627L188.487,80.627L188.487,81.602L188.462,81.602C188.104,80.897 187.464,80.475 186.312,80.475C184.34,80.475 183.393,82.266 183.393,83.944C183.393,85.633 184.314,87.157 186.184,87.157C187.016,87.157 187.86,86.825 188.373,86.145L188.398,86.145L188.398,86.786C188.398,88.17 187.643,89.028 186.376,89.028C185.492,89.028 184.941,88.862 184.021,88.44L183.893,89.553C184.941,89.911 185.543,90 186.234,90C188.577,90 189.602,88.862 189.602,86.875L189.602,80.627Z" style="fill:rgb(35,31,32);fill-rule:nonzero;"/>
        <path d="M191.087,89.911C191.304,89.95 191.521,90 191.905,90C193.493,90 193.967,88.555 194.415,87.299L196.821,80.627L195.605,80.627L193.813,86.03L193.787,86.03L192.034,80.627L190.715,80.627L192.93,86.721C193.007,86.94 193.16,87.274 193.16,87.414C193.16,87.543 192.802,89.028 191.727,89.028C191.521,89.028 191.317,88.977 191.163,88.926L191.087,89.911Z" style="fill:rgb(35,31,32);fill-rule:nonzero;"/>
    </g>
</svg>
